<svg width="48" height="46" viewBox="0 0 48 46" fill="none" xmlns="http://www.w3.org/2000/svg">
<path d="M18.2941 14.7647H18.3176M30.0588 14.7647H30.0824M38.2941 3C40.1662 3 41.9617 3.7437 43.2855 5.06748C44.6092 6.39127 45.3529 8.18671 45.3529 10.0588V28.8824C45.3529 30.7545 44.6092 32.5499 43.2855 33.8737C41.9617 35.1975 40.1662 35.9412 38.2941 35.9412H26.5294L14.7647 43V35.9412H10.0588C8.18671 35.9412 6.39127 35.1975 5.06748 33.8737C3.7437 32.5499 3 30.7545 3 28.8824V10.0588C3 8.18671 3.7437 6.39127 5.06748 5.06748C6.39127 3.7437 8.18671 3 10.0588 3H38.2941Z" stroke="white" stroke-width="4.71" stroke-linecap="round" stroke-linejoin="round"/>
<path d="M18.2939 24.1763C19.0607 24.9589 19.9759 25.5806 20.986 26.005C21.9961 26.4294 23.0807 26.6481 24.1763 26.6481C25.2719 26.6481 26.3565 26.4294 27.3666 26.005C28.3767 25.5806 29.2919 24.9589 30.0587 24.1763" stroke="white" stroke-width="4.71" stroke-linecap="round" stroke-linejoin="round"/>
</svg>
