<svg width="41" height="41" viewBox="0 0 41 41" fill="none" xmlns="http://www.w3.org/2000/svg">
<path fill-rule="evenodd" clip-rule="evenodd" d="M13.3214 2.46429C13.3214 2.00963 13.1408 1.57359 12.8193 1.2521C12.4978 0.930612 12.0618 0.75 11.6071 0.75C11.1525 0.75 10.7165 0.930612 10.395 1.2521C10.0735 1.57359 9.89286 2.00963 9.89286 2.46429V5.32143H9.32143C8.26056 5.32143 7.24315 5.74286 6.493 6.493C5.74286 7.24315 5.32143 8.26056 5.32143 9.32143V9.89286H2.46429C2.00963 9.89286 1.57359 10.0735 1.2521 10.395C0.930612 10.7165 0.75 11.1525 0.75 11.6071C0.75 12.0618 0.930612 12.4978 1.2521 12.8193C1.57359 13.1408 2.00963 13.3214 2.46429 13.3214H5.32143V19.0357H2.46429C2.00963 19.0357 1.57359 19.2163 1.2521 19.5378C0.930612 19.8593 0.75 20.2953 0.75 20.75C0.75 21.2047 0.930612 21.6407 1.2521 21.9622C1.57359 22.2837 2.00963 22.4643 2.46429 22.4643H5.32143V28.1786H2.46429C2.00963 28.1786 1.57359 28.3592 1.2521 28.6807C0.930612 29.0022 0.75 29.4382 0.75 29.8929C0.75 30.3475 0.930612 30.7836 1.2521 31.105C1.57359 31.4265 2.00963 31.6071 2.46429 31.6071H5.32143V32.1786C5.32143 34.3866 7.11343 36.1786 9.32143 36.1786H9.89286V39.0357C9.89286 39.4904 10.0735 39.9264 10.395 40.2479C10.7165 40.5694 11.1525 40.75 11.6071 40.75C12.0618 40.75 12.4978 40.5694 12.8193 40.2479C13.1408 39.9264 13.3214 39.4904 13.3214 39.0357V36.1786H19.0357V39.0357C19.0357 39.4904 19.2163 39.9264 19.5378 40.2479C19.8593 40.5694 20.2953 40.75 20.75 40.75C21.2047 40.75 21.6407 40.5694 21.9622 40.2479C22.2837 39.9264 22.4643 39.4904 22.4643 39.0357V36.1786H28.1786V39.0357C28.1786 39.4904 28.3592 39.9264 28.6807 40.2479C29.0022 40.5694 29.4382 40.75 29.8929 40.75C30.3475 40.75 30.7836 40.5694 31.105 40.2479C31.4265 39.9264 31.6071 39.4904 31.6071 39.0357V36.1786H32.1786C33.2394 36.1786 34.2569 35.7571 35.007 35.007C35.7571 34.2569 36.1786 33.2394 36.1786 32.1786V31.6071H39.0357C39.4904 31.6071 39.9264 31.4265 40.2479 31.105C40.5694 30.7836 40.75 30.3475 40.75 29.8929C40.75 29.4382 40.5694 29.0022 40.2479 28.6807C39.9264 28.3592 39.4904 28.1786 39.0357 28.1786H36.1786V22.4643H39.0357C39.4904 22.4643 39.9264 22.2837 40.2479 21.9622C40.5694 21.6407 40.75 21.2047 40.75 20.75C40.75 20.2953 40.5694 19.8593 40.2479 19.5378C39.9264 19.2163 39.4904 19.0357 39.0357 19.0357H36.1786V13.3214H39.0357C39.4904 13.3214 39.9264 13.1408 40.2479 12.8193C40.5694 12.4978 40.75 12.0618 40.75 11.6071C40.75 11.1525 40.5694 10.7165 40.2479 10.395C39.9264 10.0735 39.4904 9.89286 39.0357 9.89286H36.1786V9.32143C36.1786 8.26056 35.7571 7.24315 35.007 6.493C34.2569 5.74286 33.2394 5.32143 32.1786 5.32143H31.6071V2.46429C31.6071 2.00963 31.4265 1.57359 31.105 1.2521C30.7836 0.930612 30.3475 0.75 29.8929 0.75C29.4382 0.75 29.0022 0.930612 28.6807 1.2521C28.3592 1.57359 28.1786 2.00963 28.1786 2.46429V5.32143H22.4643V2.46429C22.4643 2.00963 22.2837 1.57359 21.9622 1.2521C21.6407 0.930612 21.2047 0.75 20.75 0.75C20.2953 0.75 19.8593 0.930612 19.5378 1.2521C19.2163 1.57359 19.0357 2.00963 19.0357 2.46429V5.32143H13.3214V2.46429ZM8.75 9.32143C8.75 9.16988 8.8102 9.02453 8.91737 8.91737C9.02453 8.8102 9.16988 8.75 9.32143 8.75H32.1786C32.3301 8.75 32.4755 8.8102 32.5826 8.91737C32.6898 9.02453 32.75 9.16988 32.75 9.32143V32.1786C32.75 32.3301 32.6898 32.4755 32.5826 32.5826C32.4755 32.6898 32.3301 32.75 32.1786 32.75H9.32143C9.16988 32.75 9.02453 32.6898 8.91737 32.5826C8.8102 32.4755 8.75 32.3301 8.75 32.1786V9.32143ZM20.2906 27.0426L19.662 25.278H15.0289L14.4003 27.0426C14.2475 27.4709 13.9309 27.8209 13.52 28.0157C13.1091 28.2106 12.6377 28.2342 12.2094 28.0814C11.7811 27.9287 11.4311 27.612 11.2363 27.2012C11.0414 26.7903 11.0178 26.3189 11.1706 25.8906L15.0563 14.9877L15.0631 14.9671L15.0723 14.9443C15.4197 14.0483 16.2517 13.3191 17.3443 13.3191C18.4391 13.3191 19.2689 14.0483 19.6186 14.9466L19.6254 14.9671L19.6346 14.99L23.5203 25.8929C23.6656 26.3194 23.6371 26.786 23.441 27.1916C23.2449 27.5973 22.897 27.9095 22.4725 28.0606C22.048 28.2117 21.581 28.1896 21.1727 27.9991C20.7644 27.8086 20.4475 27.465 20.2906 27.0426ZM17.3443 18.7797L18.4391 21.8494H16.2494L17.3443 18.7797ZM25.8929 15.0311C25.8929 14.5765 26.0735 14.1405 26.395 13.819C26.7165 13.4975 27.1525 13.3169 27.6071 13.3169C28.0618 13.3169 28.4978 13.4975 28.8193 13.819C29.1408 14.1405 29.3214 14.5765 29.3214 15.0311V26.4666C29.3214 26.9212 29.1408 27.3573 28.8193 27.6788C28.4978 28.0002 28.0618 28.1809 27.6071 28.1809C27.1525 28.1809 26.7165 28.0002 26.395 27.6788C26.0735 27.3573 25.8929 26.9212 25.8929 26.4666V15.0311Z" fill="white"/>
</svg>
