<svg width="45" height="45" viewBox="0 0 45 45" fill="none" xmlns="http://www.w3.org/2000/svg">
<path d="M23.5526 39.7484C21.6474 41.0705 18.5842 40.3632 17.9211 37.6221C17.7865 37.0667 17.5227 36.551 17.1511 36.1168C16.7796 35.6827 16.3108 35.3424 15.7828 35.1237C15.2549 34.905 14.6828 34.814 14.1131 34.8582C13.5434 34.9023 12.9921 35.0804 12.5042 35.3779C9.25579 37.3568 5.53579 33.6389 7.51474 30.3884C7.81179 29.9007 7.98958 29.3498 8.03365 28.7805C8.07772 28.2111 7.98683 27.6394 7.76836 27.1118C7.5499 26.5842 7.21002 26.1156 6.77636 25.7441C6.34271 25.3726 5.8275 25.1086 5.27263 24.9737C1.57579 24.0768 1.57579 18.8179 5.27263 17.9211C5.828 17.7865 6.34374 17.5227 6.77789 17.1511C7.21204 16.7796 7.55232 16.3108 7.77104 15.7828C7.98976 15.2549 8.08074 14.6828 8.03657 14.1131C7.99239 13.5434 7.81432 12.9921 7.51684 12.5042C5.53789 9.25579 9.25579 5.53579 12.5063 7.51474C14.6116 8.79474 17.34 7.6621 17.9211 5.27263C18.8179 1.57579 24.0768 1.57579 24.9737 5.27263C25.1082 5.828 25.372 6.34374 25.7436 6.77789C26.1152 7.21204 26.584 7.55232 27.1119 7.77104C27.6398 7.98976 28.2119 8.08074 28.7817 8.03657C29.3514 7.99239 29.9026 7.81432 30.3905 7.51684C33.6389 5.53789 37.3589 9.25579 35.38 12.5063C35.0829 12.994 34.9052 13.5449 34.8611 14.1143C34.817 14.6836 34.9079 15.2553 35.1264 15.7829C35.3448 16.3105 35.6847 16.7791 36.1184 17.1506C36.552 17.5222 37.0672 17.7861 37.6221 17.9211C40.7632 18.6832 41.2347 22.5926 39.0411 24.3" stroke="white" stroke-width="3.25" stroke-linecap="round" stroke-linejoin="round"/>
<path d="M15.1318 21.4471C15.1318 23.1222 15.7972 24.7286 16.9817 25.9131C18.1661 27.0975 19.7726 27.7629 21.4476 27.7629C23.1227 27.7629 24.7291 27.0975 25.9136 25.9131C27.098 24.7286 27.7634 23.1222 27.7634 21.4471C27.7634 19.7721 27.098 18.1656 25.9136 16.9812C24.7291 15.7968 23.1227 15.1313 21.4476 15.1313C19.7726 15.1313 18.1661 15.7968 16.9817 16.9812C15.7972 18.1656 15.1318 19.7721 15.1318 21.4471ZM31.9739 42.4998L42.5003 36.184L31.9739 29.8682V42.4998Z" stroke="white" stroke-width="3.25" stroke-linecap="round" stroke-linejoin="round"/>
</svg>
