<svg width="43" height="42" viewBox="0 0 43 42" fill="none" xmlns="http://www.w3.org/2000/svg">
<path d="M24.9249 15.4798C24.9249 15.0568 24.7568 14.6511 24.4577 14.3519C24.1586 14.0528 23.7529 13.8848 23.3298 13.8848H10.5696C10.1466 13.8848 9.74091 14.0528 9.44178 14.3519C9.14266 14.6511 8.97461 15.0568 8.97461 15.4798C8.97461 15.9028 9.14266 16.3085 9.44178 16.6076C9.74091 16.9068 10.1466 17.0748 10.5696 17.0748H23.3298C23.7529 17.0748 24.1586 16.9068 24.4577 16.6076C24.7568 16.3085 24.9249 15.9028 24.9249 15.4798ZM22.7982 21.8599C22.7982 21.4369 22.6301 21.0312 22.331 20.732C22.0319 20.4329 21.6262 20.2649 21.2031 20.2649H10.5696C10.1466 20.2649 9.74091 20.4329 9.44178 20.732C9.14266 21.0312 8.97461 21.4369 8.97461 21.8599C8.97461 22.2829 9.14266 22.6886 9.44178 22.9877C9.74091 23.2869 10.1466 23.4549 10.5696 23.4549H21.2031C21.6262 23.4549 22.0319 23.2869 22.331 22.9877C22.6301 22.6886 22.7982 22.2829 22.7982 21.8599ZM23.3298 26.645C23.7529 26.645 24.1586 26.813 24.4577 27.1121C24.7568 27.4113 24.9249 27.817 24.9249 28.24C24.9249 28.663 24.7568 29.0687 24.4577 29.3679C24.1586 29.667 23.7529 29.835 23.3298 29.835H10.5696C10.1466 29.835 9.74091 29.667 9.44178 29.3679C9.14266 29.0687 8.97461 28.663 8.97461 28.24C8.97461 27.817 9.14266 27.4113 9.44178 27.1121C9.74091 26.813 10.1466 26.645 10.5696 26.645H23.3298Z" fill="white"/>
<path d="M17.4814 0.75C19.1996 0.7501 20.8746 1.28601 22.2744 2.28223H22.2754L22.5713 2.47656C23.2774 2.90235 24.088 3.12958 24.917 3.13086C25.8642 3.1323 26.7881 2.83821 27.5605 2.29004L27.9326 2.02441L28.1826 1.85938C30.7862 0.26663 34.2129 2.12825 34.2129 5.25684V21.6094H40.875C41.3642 21.6095 41.8338 21.8045 42.1797 22.1504C42.5255 22.4964 42.7197 22.9659 42.7197 23.4551V35.1514C42.7197 36.7688 42.0773 38.3202 40.9336 39.4639C39.7899 40.6075 38.2385 41.25 36.6211 41.25H8.97461C6.79317 41.25 4.70071 40.3833 3.1582 38.8408C1.61569 37.2983 0.749023 35.2059 0.749023 33.0244V5.25684C0.749023 2.02492 4.40123 0.147551 7.0293 2.02441L7.40137 2.29004H7.40039C8.17298 2.83847 9.09747 3.1323 10.0449 3.13086C10.9923 3.1294 11.9157 2.83291 12.6865 2.28223H12.6875L12.9531 2.10059C14.297 1.22087 15.8706 0.75 17.4814 0.75ZM34.2129 35.1514L34.2246 35.3896C34.2793 35.9409 34.5229 36.4593 34.918 36.8545C35.3696 37.3061 35.9824 37.5595 36.6211 37.5596C37.2598 37.5596 37.8726 37.3062 38.3242 36.8545C38.7759 36.4028 39.0293 35.7901 39.0293 35.1514V25.2998H34.2129V35.1514ZM17.4814 4.43945C16.5319 4.43945 15.6053 4.73455 14.8311 5.28418C13.4348 6.28193 11.762 6.81932 10.0459 6.82129C8.32946 6.82325 6.65551 6.28886 5.25684 5.29395H5.25586L4.88379 5.02832C4.84182 4.99852 4.79256 4.9803 4.74121 4.97656C4.68969 4.97285 4.63774 4.9842 4.5918 5.00781C4.546 5.03143 4.50737 5.06738 4.48047 5.11133C4.4537 5.1552 4.43965 5.20545 4.43945 5.25684V33.0244C4.43945 34.2272 4.91709 35.381 5.76758 36.2314C6.61807 37.0819 7.77183 37.5596 8.97461 37.5596H31.0176C30.6993 36.8205 30.5225 36.006 30.5225 35.1514V5.25684L30.5117 5.18164C30.5048 5.15704 30.4949 5.13335 30.4814 5.11133C30.4545 5.06738 30.4159 5.03143 30.3701 5.00781C30.3242 4.9842 30.2722 4.97285 30.2207 4.97656C30.1949 4.97844 30.1696 4.98444 30.1455 4.99316L30.0781 5.02832L29.7061 5.29395H29.7051C28.3064 6.28886 26.6324 6.82325 24.916 6.82129C23.1999 6.81932 21.5271 6.28193 20.1309 5.28418L19.834 5.08984C19.1251 4.66506 18.3122 4.43954 17.4814 4.43945Z" fill="white" stroke="white" stroke-width="0.5"/>
</svg>
