<svg width="58" height="40" viewBox="0 0 58 40" fill="none" xmlns="http://www.w3.org/2000/svg">
<path d="M9.28613 0.5H47.8574C49.0111 0.500036 50.1539 0.727457 51.2197 1.16895C52.2854 1.61044 53.2536 2.25759 54.0693 3.07324C54.8852 3.88907 55.5321 4.8579 55.9736 5.92383C56.4151 6.98974 56.6426 8.1324 56.6426 9.28613V30.7139C56.6426 31.8676 56.4151 33.0103 55.9736 34.0762C55.5321 35.1421 54.8852 36.1109 54.0693 36.9268C53.2536 37.7424 52.2854 38.3896 51.2197 38.8311C50.1539 39.2725 49.0111 39.5 47.8574 39.5H9.28613C6.95602 39.5 4.72088 38.5744 3.07324 36.9268C1.4256 35.2791 0.5 33.044 0.5 30.7139V9.28613C0.5 6.95602 1.4256 4.72088 3.07324 3.07324C4.72088 1.4256 6.95602 0.5 9.28613 0.5ZM3.78613 30.7139C3.78613 33.75 6.24999 36.2139 9.28613 36.2139H47.8574C49.3159 36.2138 50.7147 35.6348 51.7461 34.6035C52.7775 33.5721 53.3574 32.1726 53.3574 30.7139V16.6426H3.78613V30.7139ZM39.2861 27.6426H46.4287C46.8643 27.6426 47.2818 27.8161 47.5898 28.124C47.8979 28.4321 48.0713 28.8504 48.0713 29.2861C48.0712 29.7217 47.8978 30.1393 47.5898 30.4473C47.2818 30.7552 46.8643 30.9287 46.4287 30.9287H39.2861C38.8504 30.9287 38.4321 30.7554 38.124 30.4473C37.8161 30.1393 37.6427 29.7217 37.6426 29.2861C37.6426 28.8504 37.8159 28.4321 38.124 28.124C38.4321 27.8159 38.8504 27.6426 39.2861 27.6426ZM9.0127 3.79199C7.6534 3.85949 6.36341 4.42956 5.39648 5.39648C4.36503 6.42793 3.78613 7.82744 3.78613 9.28613V13.3574H53.3574V9.28613C53.3574 7.82744 52.7775 6.42793 51.7461 5.39648C50.7147 4.36519 49.3159 3.78621 47.8574 3.78613H9.28613L9.0127 3.79199Z" fill="white" stroke="white"/>
</svg>
