<svg width="65" height="48" viewBox="0 0 65 48" fill="none" xmlns="http://www.w3.org/2000/svg">
<path d="M4 15.4286C6.27328 15.4286 8.45346 16.3316 10.0609 17.9391C11.6684 19.5465 12.5714 21.7267 12.5714 24C12.5714 26.2733 11.6684 28.4535 10.0609 30.0609C8.45346 31.6684 6.27328 32.5714 4 32.5714V38.2857C4 39.8012 4.60204 41.2547 5.67368 42.3263C6.74531 43.398 8.19876 44 9.71429 44H55.4286C56.9441 44 58.3975 43.398 59.4692 42.3263C60.5408 41.2547 61.1429 39.8012 61.1429 38.2857V32.5714C58.8696 32.5714 56.6894 31.6684 55.0819 30.0609C53.4745 28.4535 52.5714 26.2733 52.5714 24C52.5714 21.7267 53.4745 19.5465 55.0819 17.9391C56.6894 16.3316 58.8696 15.4286 61.1429 15.4286V9.71429C61.1429 8.19876 60.5408 6.74531 59.4692 5.67368C58.3975 4.60204 56.9441 4 55.4286 4H9.71429C8.19876 4 6.74531 4.60204 5.67368 5.67368C4.60204 6.74531 4 8.19876 4 9.71429V15.4286Z" stroke="white" stroke-width="6.29" stroke-linecap="round" stroke-linejoin="round"/>
<path d="M24 23.9999L29.7143 29.7142L41.1429 18.2856" stroke="white" stroke-width="6.29" stroke-linecap="round" stroke-linejoin="round"/>
</svg>
