<svg width="39" height="32" viewBox="0 0 39 32" fill="none" xmlns="http://www.w3.org/2000/svg">
<path fill-rule="evenodd" clip-rule="evenodd" d="M18.1212 0.24214C17.5471 0.528279 17.3341 0.789023 16.6748 2.01302C16.4032 2.51749 15.8029 3.62093 15.3409 4.46512C14.0813 6.76726 11.8239 10.9262 9.96372 14.3721C6.95851 19.939 0.967442 30.928 0.873117 31.0465C0.799256 31.1393 1.83544 31.1628 5.99237 31.1628H11.2043L11.8848 30.2093C14.4487 26.6167 17.6065 23.4952 20.8498 21.3471C22.186 20.462 23.3647 19.795 24.2267 19.4362C25.0081 19.1109 25.3909 19.1191 25.7673 19.4693C25.8885 19.5821 26.7855 21.1395 27.7606 22.9302C28.7357 24.7209 30.1382 27.2953 30.8772 28.6512L32.2209 31.1163L35.1167 31.1408C36.7095 31.1544 38.0126 31.1408 38.0126 31.1108C38.0126 31.0807 37.7036 30.4835 37.326 29.7838C35.0076 25.488 33.4766 22.6629 32.8054 21.4419C32.3834 20.6744 30.9503 18.0581 29.6206 15.6279C26.1339 9.25516 25.0462 7.2707 24.2925 5.90698C23.9248 5.24186 23.2357 3.98605 22.7611 3.11628C21.5392 0.877302 21.3209 0.571442 20.7229 0.259907C20.2884 0.0335814 20.1193 0 19.4155 0C18.7313 0 18.5326 0.0371163 18.1212 0.24214ZM29.966 6.13349C29.2753 6.30167 28.6607 6.84251 28.3279 7.57535C28.0867 8.10642 28.0953 9.1213 28.3457 9.67442C29.0406 11.2096 31.0712 11.6266 32.3066 10.4879C32.9483 9.89647 33.1253 9.49005 33.1273 8.60465C33.1286 7.95153 33.095 7.79935 32.8522 7.36093C32.7 7.08614 32.4408 6.7586 32.2763 6.63312C31.6342 6.14344 30.7292 5.94772 29.966 6.13349ZM19.2446 7.83721C19.1933 7.90121 18.4913 9.18837 17.6844 10.6977C16.8775 12.207 15.6117 14.5721 14.8715 15.9535C14.1313 17.3349 13.1486 19.1767 12.6876 20.0465C12.2267 20.9163 11.7106 21.8598 11.5408 22.1433C11.2376 22.6495 11.0044 23.1628 11.0776 23.1628C11.098 23.1628 11.5888 22.6754 12.1683 22.0799C14.8498 19.3236 18.9835 16.3217 22.4141 14.6391C22.7049 14.4966 22.9428 14.3193 22.9428 14.2455C22.9428 14.1715 22.6437 13.5419 22.2781 12.8462C20.9479 10.3149 20.6806 9.81228 20.616 9.72093C20.5798 9.66977 20.3288 9.19888 20.0582 8.67442C19.5787 7.7453 19.4359 7.59833 19.2446 7.83721ZM-8.41721 36.0698C-8.88037 37.26 -11.7549 45.0269 -11.7549 45.0881C-11.7549 45.1071 -11.3087 45.1107 -10.7632 45.0962L-9.77153 45.0698L-9.42474 44.093L-9.07805 43.1163H-7.23888H-5.39981L-5.05302 44.093L-4.70632 45.0698L-3.71898 45.0962C-3.14884 45.1114 -2.73163 45.0858 -2.73163 45.0355C-2.73163 44.9876 -3.14512 43.8664 -3.65042 42.544C-4.15581 41.2215 -4.93777 39.1663 -5.38828 37.9767L-6.20726 35.814H-7.26242H-8.31767L-8.41721 36.0698ZM-2.08093 35.8372C-2.08121 35.85 -2.08688 37.9326 -2.0934 40.4651L-2.1054 45.0698L-1.20921 45.0964L-0.313023 45.123V40.4685V35.814H-1.19674C-1.68279 35.814 -2.08065 35.8245 -2.08093 35.8372ZM22.5707 36.6047V37.3953H24.0126H25.4544V41.2558V45.1163H26.3846H27.3149V41.2558V37.3953H28.7102H30.1056V36.6047V35.814H26.3381H22.5707V36.6047ZM44.9583 35.876C44.9242 35.91 44.8963 38.0031 44.8963 40.5272V45.1163H45.8218H46.7473L46.7752 42.907C46.8005 40.9167 46.8217 40.6609 46.9893 40.3268C47.246 39.815 47.6935 39.5349 48.2545 39.5349C48.7927 39.5349 49.0671 39.6509 49.3149 39.9831C49.488 40.2153 49.5029 40.4019 49.5286 42.6744L49.5561 45.1163H50.4905H51.4248L51.393 42.4419C51.3613 39.7799 51.36 39.765 51.1166 39.2459C50.7219 38.4034 49.991 37.9654 48.9671 37.9576C48.2761 37.9523 47.5664 38.2239 47.1122 38.6674L46.7567 39.0145V37.4142V35.814H45.8886C45.411 35.814 44.9924 35.8419 44.9583 35.876ZM-7.9907 39.721L-8.64521 41.6744H-7.26977C-6.5133 41.6744 -5.89442 41.6517 -5.89442 41.624C-5.89442 41.4866 -7.22977 37.7674 -7.27907 37.7675C-7.31051 37.7676 -7.63079 38.6467 -7.9907 39.721ZM4.03721 38.0964C3.78865 38.1759 3.42735 38.3985 3.20809 38.6071C2.99433 38.8104 2.8054 38.9767 2.78809 38.9767C2.77088 38.9767 2.75674 38.7771 2.75674 38.533V38.0893L1.89628 38.1051L1.03581 38.1209L1.01172 42.8744L0.987627 47.6279H1.9187H2.84977V45.9353V44.2426L3.15209 44.5295C3.70698 45.0561 4.01656 45.1628 4.9893 45.1628C5.82139 45.1628 5.90781 45.1439 6.46837 44.8401C7.77739 44.1305 8.42577 42.6095 8.15488 40.8837C7.88623 39.1723 6.72642 38.0597 5.13395 37.9858C4.7226 37.9667 4.3133 38.0079 4.03721 38.0964ZM11.1608 38.0447C10.6753 38.1479 10.1362 38.4208 9.79888 38.7342C9.49051 39.0207 9.18028 39.6643 9.17739 40.0233L9.17535 40.2791H10.0591C10.8527 40.2791 10.9428 40.2618 10.9428 40.1092C10.9428 39.7461 11.6037 39.3488 12.2076 39.3488C12.9717 39.3488 13.4801 39.8024 13.4935 40.4962L13.5009 40.8837L12.1445 40.9328C10.8269 40.9807 10.7696 40.9913 10.1445 41.3049C9.33265 41.7124 8.97805 42.1779 8.91684 42.9166C8.84288 43.8084 9.228 44.5694 9.94819 44.9543C10.281 45.1323 10.4812 45.1628 11.3149 45.1628C12.3809 45.1628 12.7878 45.0279 13.2656 44.5162C13.4743 44.2926 13.5014 44.2853 13.5614 44.4373C13.5977 44.5294 13.6303 44.7198 13.634 44.8605L13.6405 45.1163H14.5029H15.3653L15.3394 43.7907C15.2572 39.5715 15.2463 39.49 14.6807 38.8623C14.1589 38.283 13.4992 38.0277 12.4312 37.992C11.9451 37.9757 11.3735 37.9994 11.1608 38.0447ZM31.7122 38.0907C30.7753 38.3546 30.001 39.0382 29.5683 39.9834C29.3825 40.3893 29.3219 40.6973 29.2875 41.4112C29.2282 42.6436 29.4673 43.4235 30.1254 44.1435C30.7742 44.8535 31.4041 45.1318 32.4908 45.1889C34.0773 45.2723 35.229 44.6839 35.8192 43.4884L36.0487 43.0233L35.1672 42.9966L34.2856 42.97L33.9852 43.2885C33.5213 43.7803 32.8017 43.9324 32.1757 43.6709C31.5979 43.4294 31.3173 43.0835 31.1792 42.4419L31.114 42.1395H33.6331H36.1521V41.6009C36.1521 40.4806 35.6654 39.2932 34.9739 38.7266C34.1766 38.0732 32.7569 37.7965 31.7122 38.0907ZM39.6147 38.0523C38.634 38.2456 37.6549 39.0865 37.2745 40.0623C36.98 40.8178 36.9132 42.0143 37.1246 42.7493C37.4236 43.7897 38.0383 44.5104 39.0051 44.9544C39.3892 45.1307 39.6165 45.1608 40.5707 45.1618C41.5162 45.1626 41.7527 45.1324 42.1169 44.964C42.9332 44.5866 43.6166 43.7774 43.815 42.9535L43.8766 42.6977L42.9678 42.6997L42.0591 42.7017L41.9195 42.9964C41.6459 43.5742 40.9529 43.8542 40.1824 43.6983C39.1805 43.4955 38.6055 42.0972 38.9859 40.7885C39.3364 39.5831 40.4192 39.1025 41.4153 39.7102C41.5729 39.8063 41.7738 40.0365 41.8616 40.2216L42.0213 40.5581H42.911H43.8007L43.7372 40.2093C43.6407 39.6794 43.2016 38.965 42.7666 38.6304C42.0277 38.0621 40.7521 37.8281 39.6147 38.0523ZM16.5242 38.7967V39.5349H18.1521C19.0474 39.5349 19.78 39.5643 19.78 39.6002C19.78 39.6362 19.6587 39.7931 19.5103 39.949C19.362 40.105 18.5876 41.0478 17.7894 42.0443L16.3381 43.8559V44.4861V45.1163H19.2684H22.1986V44.3721V43.6279H20.4304H18.6622L19.2444 42.9177C19.5646 42.5271 20.3393 41.576 20.966 40.8043L22.1056 39.4012L22.105 38.7471L22.1046 38.093L19.3143 38.0757L16.5242 38.0585V38.7967ZM32.2157 39.4836C32.0205 39.5532 31.7739 39.6874 31.668 39.7819C31.4473 39.9783 31.2219 40.4632 31.2219 40.7412C31.2219 40.9235 31.2758 40.9302 32.747 40.9302H34.272L34.195 40.5886C34.0873 40.111 33.8367 39.802 33.3595 39.5581C32.8905 39.3185 32.7113 39.3069 32.2157 39.4836ZM4.01256 39.5408C3.63488 39.652 3.23693 40.0403 3.02716 40.502C2.83023 40.9357 2.79023 41.9681 2.94837 42.5374C3.17191 43.3421 3.95646 43.8132 4.85014 43.6793C5.36558 43.602 5.87349 43.1904 6.11814 42.652C6.34995 42.1416 6.3493 41.0196 6.11674 40.5078C5.74772 39.6953 4.86521 39.2898 4.01256 39.5408ZM12.0785 42.0464C11.3845 42.1504 11.0481 42.3111 10.8919 42.6131C10.6797 43.0234 10.7239 43.3047 11.043 43.5731C11.2721 43.766 11.4274 43.814 11.8223 43.814C12.7008 43.814 13.3759 43.3503 13.5059 42.6577C13.6126 42.0888 13.5513 42.0016 13.035 41.9863C12.7796 41.9788 12.3492 42.0059 12.0785 42.0464Z" fill="#0000FF"/>
</svg>
