<svg width="46" height="40" viewBox="0 0 46 40" fill="none" xmlns="http://www.w3.org/2000/svg">
<path d="M42.8571 25.7143L45.7143 40H0L2.85714 25.7143H8.03571C7.27679 24.4048 6.70387 23.0283 6.31696 21.5848C5.93006 20.1414 5.72917 18.6607 5.71429 17.1429C5.71429 15.5655 5.91518 14.0476 6.31696 12.5893C6.71875 11.131 7.29911 9.76935 8.05804 8.50446C8.81696 7.23958 9.70982 6.07887 10.7366 5.02232C11.7634 3.96577 12.9167 3.07292 14.1964 2.34375C15.4762 1.61458 16.8452 1.04167 18.3036 0.625C19.7619 0.208333 21.2798 0 22.8571 0C24.4345 0 25.9524 0.200893 27.4107 0.602679C28.869 1.00446 30.2307 1.58482 31.4955 2.34375C32.7604 3.10268 33.9211 3.99554 34.9777 5.02232C36.0342 6.04911 36.9271 7.20238 37.6563 8.48214C38.3854 9.7619 38.9583 11.131 39.375 12.5893C39.7917 14.0476 40 15.5655 40 17.1429C40 18.6607 39.8065 20.1414 39.4196 21.5848C39.0327 23.0283 38.4524 24.4048 37.6786 25.7143H42.8571ZM37.1429 17.1429C37.1429 16.6667 37.1205 16.1905 37.0759 15.7143C37.0313 15.2381 36.9568 14.7619 36.8527 14.2857H31.2946C31.3839 15.253 31.4286 16.2054 31.4286 17.1429C31.4286 18.0952 31.3839 19.0476 31.2946 20H36.8527C36.942 19.5238 37.0089 19.0476 37.0536 18.5714C37.0982 18.0952 37.128 17.619 37.1429 17.1429ZM17.2768 20H28.4375C28.5268 19.0476 28.5714 18.0952 28.5714 17.1429C28.5714 16.2054 28.5268 15.253 28.4375 14.2857H17.2768C17.1875 15.253 17.1429 16.2054 17.1429 17.1429C17.1429 18.0952 17.1875 19.0476 17.2768 20ZM28.0357 22.8571H17.6786C17.7381 23.1994 17.8423 23.6458 17.9911 24.1964C18.1399 24.747 18.3259 25.3497 18.5491 26.0045C18.7723 26.6592 19.0327 27.2991 19.3304 27.9241C19.628 28.5491 19.9554 29.1295 20.3125 29.6652C20.6696 30.2009 21.064 30.625 21.4955 30.9375C21.9271 31.25 22.381 31.4137 22.8571 31.4286C23.3333 31.4286 23.7798 31.2649 24.1964 30.9375C24.6131 30.6101 25.0074 30.186 25.3795 29.6652C25.7515 29.1443 26.0789 28.564 26.3616 27.9241C26.6443 27.2842 26.9048 26.6443 27.1429 26.0045C27.381 25.3646 27.567 24.7693 27.7009 24.2188C27.8348 23.6682 27.9464 23.2143 28.0357 22.8571ZM17.3884 30.3348C16.7039 29.2039 16.1533 27.9985 15.7366 26.7188C15.3199 25.439 15 24.1518 14.7768 22.8571H9.77679C10.1339 23.6458 10.5804 24.4122 11.1161 25.1563C11.6518 25.9003 12.247 26.6071 12.9018 27.2768C13.5565 27.9464 14.2708 28.5342 15.0446 29.0402C15.8185 29.5461 16.5997 29.9777 17.3884 30.3348ZM30.9375 22.8571C30.6994 24.1369 30.3795 25.4167 29.9777 26.6964C29.5759 27.9762 29.0327 29.189 28.3482 30.3348C29.1518 29.9777 29.9256 29.5387 30.6696 29.0179C31.4137 28.497 32.1205 27.9167 32.7902 27.2768C33.4598 26.6369 34.0625 25.9375 34.5982 25.1786C35.1339 24.4196 35.5804 23.6458 35.9375 22.8571H30.9375ZM35.9375 11.4286C35.1786 9.74702 34.1518 8.25893 32.8571 6.96429C31.5625 5.66964 30.0521 4.66518 28.3259 3.95089C29.0104 5.08185 29.5536 6.2872 29.9554 7.56696C30.3571 8.84673 30.6845 10.1339 30.9375 11.4286H35.9375ZM22.8571 2.85714C22.381 2.85714 21.9345 3.02083 21.5179 3.34821C21.1012 3.6756 20.7068 4.0997 20.3348 4.62054C19.9628 5.14137 19.6354 5.72173 19.3527 6.36161C19.0699 7.00149 18.8095 7.64137 18.5714 8.28125C18.3333 8.92113 18.1399 9.51637 17.9911 10.067C17.8423 10.6176 17.7381 11.0714 17.6786 11.4286H28.0357C27.9613 11.0863 27.8571 10.6399 27.7232 10.0893C27.5893 9.53869 27.4033 8.93601 27.1652 8.28125C26.9271 7.62649 26.6667 6.98661 26.3839 6.36161C26.1012 5.73661 25.7738 5.15625 25.4018 4.62054C25.0298 4.08482 24.6354 3.66071 24.2188 3.34821C23.8021 3.03571 23.3482 2.87202 22.8571 2.85714ZM17.3884 3.95089C15.6771 4.66518 14.1741 5.66964 12.8795 6.96429C11.5848 8.25893 10.5506 9.74702 9.77679 11.4286H14.7768C15.0149 10.1339 15.3348 8.84673 15.7366 7.56696C16.1384 6.2872 16.689 5.08185 17.3884 3.95089ZM8.86161 14.2857C8.77232 14.7619 8.70536 15.2381 8.66071 15.7143C8.61607 16.1905 8.58631 16.6667 8.57143 17.1429C8.57143 17.619 8.59375 18.0952 8.63839 18.5714C8.68304 19.0476 8.75744 19.5238 8.86161 20H14.4196C14.3304 19.0476 14.2857 18.0952 14.2857 17.1429C14.2857 16.2054 14.3304 15.253 14.4196 14.2857H8.86161ZM3.48214 37.1429H42.2321L40.5134 28.5714H35.6027C34.7991 29.4792 33.9137 30.2827 32.9464 30.9821C31.9792 31.6815 30.9449 32.2842 29.8438 32.7902C28.7426 33.2961 27.6116 33.6682 26.4509 33.9063C25.2902 34.1443 24.0923 34.2708 22.8571 34.2857C21.6369 34.2857 20.439 34.1592 19.2634 33.9063C18.0878 33.6533 16.9568 33.2813 15.8705 32.7902C14.7842 32.2991 13.7574 31.7039 12.7902 31.0045C11.8229 30.3051 10.9301 29.494 10.1116 28.5714H5.20089L3.48214 37.1429Z" fill="white"/>
</svg>
