<svg width="49" height="40" viewBox="0 0 49 40" fill="none" xmlns="http://www.w3.org/2000/svg">
<g clip-path="url(#clip0_6_234)">
<path fill-rule="evenodd" clip-rule="evenodd" d="M22.7758 0.302674C22.0581 0.660349 21.7919 0.986279 20.9678 2.51628C20.6282 3.14686 19.8779 4.52616 19.3004 5.5814C17.7259 8.45907 14.9042 13.6578 12.5789 17.9651C8.82241 24.9237 1.33357 38.66 1.21566 38.8081C1.12334 38.9241 2.41857 38.9535 7.61473 38.9535H14.1296L14.9803 37.7616C18.1852 33.2709 22.1324 29.369 26.1865 26.6838C27.8568 25.5774 29.3302 24.7437 30.4076 24.2952C31.3844 23.8886 31.8629 23.8988 32.3333 24.3366C32.4848 24.4777 33.6061 26.4244 34.8251 28.6628C36.0439 30.9012 37.7971 34.1192 38.7208 35.814L40.4004 38.8953L44.0202 38.926C46.0111 38.943 47.64 38.926 47.64 38.8885C47.64 38.8508 47.2538 38.1044 46.7817 37.2298C43.8838 31.86 41.9701 28.3286 41.131 26.8023C40.6036 25.843 38.8122 22.5727 37.1501 19.5349C32.7916 11.569 31.4321 9.08837 30.4898 7.38372C30.0303 6.55233 29.1689 4.98256 28.5757 3.89535C27.0482 1.09663 26.7754 0.714302 26.0279 0.324884C25.4847 0.0419767 25.2735 0 24.3937 0C23.5383 0 23.2901 0.0463953 22.7758 0.302674ZM37.5818 7.66686C36.7183 7.87709 35.9502 8.55314 35.5342 9.46919C35.2326 10.133 35.2435 11.4016 35.5564 12.093C36.425 14.012 38.9632 14.5333 40.5075 13.1099C41.3096 12.3706 41.5309 11.8626 41.5333 10.7558C41.5351 9.93942 41.493 9.74919 41.1895 9.20116C40.9993 8.85767 40.6753 8.44826 40.4696 8.2914C39.6671 7.6793 38.5358 7.43465 37.5818 7.66686ZM24.18 9.79651C24.1159 9.87651 23.2383 11.4855 22.2297 13.3721C21.2211 15.2587 19.6389 18.2151 18.7137 19.9419C17.7885 21.6686 16.56 23.9709 15.9838 25.0581C15.4076 26.1453 14.7625 27.3248 14.5503 27.6791C14.1712 28.3119 13.8797 28.9535 13.9712 28.9535C13.9968 28.9535 14.6103 28.3443 15.3346 27.5999C18.6865 24.1545 23.8537 20.4021 28.1419 18.2988C28.5054 18.1207 28.8028 17.8992 28.8028 17.8069C28.8028 17.7144 28.4289 16.9273 27.9719 16.0578C26.3092 12.8936 25.975 12.2653 25.8943 12.1512C25.849 12.0872 25.5353 11.4986 25.1971 10.843C24.5976 9.68163 24.4191 9.49791 24.18 9.79651ZM-10.3972 45.0872C-10.9762 46.575 -14.5693 56.2836 -14.5693 56.3601C-14.5693 56.3838 -14.0115 56.3884 -13.3297 56.3702L-12.0902 56.3372L-11.6567 55.1163L-11.2233 53.8953H-8.92434H-6.6255L-6.19201 55.1163L-5.75864 56.3372L-4.52445 56.3702C-3.81178 56.3893 -3.29027 56.3572 -3.29027 56.2944C-3.29027 56.2345 -3.80713 54.833 -4.43875 53.18C-5.0705 51.5269 -6.04794 48.9579 -6.61108 47.4709L-7.6348 44.7674H-8.95375H-10.2728L-10.3972 45.0872ZM-2.47689 44.7965C-2.47724 44.8124 -2.48434 47.4157 -2.49248 50.5814L-2.50748 56.3372L-1.38724 56.3705L-0.267011 56.4037V50.5856V44.7674H-1.37166C-1.97922 44.7674 -2.47655 44.7806 -2.47689 44.7965ZM28.3376 45.7558V46.7442H30.14H31.9423V51.5698V56.3953H33.1051H34.2679V51.5698V46.7442H36.0121H37.7562V45.7558V44.7674H33.0469H28.3376V45.7558ZM56.3222 44.845C56.2795 44.8876 56.2446 47.5038 56.2446 50.659V56.3953H57.4015H58.5585L58.5933 53.6337C58.6248 51.1459 58.6514 50.8262 58.8609 50.4085C59.1818 49.7687 59.7411 49.4186 60.4424 49.4186C61.1152 49.4186 61.4581 49.5636 61.7679 49.9788C61.9843 50.2691 62.0029 50.5023 62.035 53.343L62.0694 56.3953H63.2374H64.4053L64.3655 53.0523C64.3259 49.7249 64.3243 49.7063 64.0201 49.0573C63.5266 48.0043 62.613 47.4567 61.3331 47.447C60.4694 47.4403 59.5823 47.7799 59.0145 48.3343L58.5702 48.7681V46.7678V44.7674H57.485C56.888 44.7674 56.3647 44.8023 56.3222 44.845ZM-9.8641 49.6513L-10.6822 52.093H-8.96294C-8.01736 52.093 -7.24375 52.0647 -7.24375 52.03C-7.24375 51.8583 -8.91294 47.2093 -8.97457 47.2094C-9.01387 47.2095 -9.41422 48.3084 -9.8641 49.6513ZM5.17078 47.6205C4.86008 47.7199 4.40845 47.9981 4.13438 48.2588C3.86718 48.513 3.63101 48.7209 3.60938 48.7209C3.58787 48.7209 3.5702 48.4714 3.5702 48.1663V47.6116L2.49462 47.6314L1.41904 47.6512L1.38892 53.593L1.3588 59.5349H2.52264H3.68648V57.4191V55.3033L4.06438 55.6619C4.75799 56.3201 5.14497 56.4535 6.3609 56.4535C7.40101 56.4535 7.50903 56.4299 8.20973 56.0501C9.84601 55.1631 10.6565 53.2619 10.3179 51.1046C9.98206 48.9653 8.53229 47.5746 6.54171 47.4822C6.02752 47.4584 5.5159 47.5099 5.17078 47.6205ZM14.0753 47.5558C13.4683 47.6849 12.7945 48.026 12.3729 48.4178C11.9874 48.7759 11.5996 49.5803 11.596 50.0291L11.5935 50.3488H12.6981C13.6901 50.3488 13.8028 50.3272 13.8028 50.1365C13.8028 49.6827 14.6289 49.186 15.3838 49.186C16.3389 49.186 16.9744 49.753 16.9911 50.6202L17.0004 51.1046L15.3048 51.166C13.6579 51.2258 13.5862 51.2391 12.8048 51.6312C11.7901 52.1405 11.3468 52.7223 11.2703 53.6457C11.1779 54.7605 11.6593 55.7117 12.5595 56.1929C12.9755 56.4153 13.2258 56.4535 14.2679 56.4535C15.6004 56.4535 16.109 56.2849 16.7062 55.6452C16.9672 55.3657 17.001 55.3566 17.076 55.5466C17.1214 55.6617 17.1622 55.8998 17.1667 56.0756L17.1748 56.3953H18.2529H19.3309L19.2986 54.7384C19.1958 49.4644 19.1822 49.3626 18.4752 48.5779C17.8229 47.8537 16.9982 47.5346 15.6632 47.49C15.0557 47.4696 14.3411 47.4993 14.0753 47.5558ZM39.7645 47.6134C38.5935 47.9433 37.6255 48.7978 37.0846 49.9793C36.8524 50.4866 36.7766 50.8716 36.7337 51.764C36.6595 53.3045 36.9585 54.2794 37.781 55.1794C38.5921 56.0669 39.3794 56.4148 40.7378 56.4862C42.7209 56.5903 44.1605 55.8549 44.8982 54.3605L45.1852 53.7791L44.0832 53.7457L42.9812 53.7124L42.6058 54.1106C42.0259 54.7253 41.1264 54.9155 40.3439 54.5886C39.6216 54.2867 39.2709 53.8544 39.0982 53.0523L39.0168 52.6744H42.1657H45.3144V52.0012C45.3144 50.6007 44.706 49.1165 43.8416 48.4083C42.845 47.5915 41.0704 47.2456 39.7645 47.6134ZM49.6426 47.5653C48.4168 47.807 47.1929 48.8581 46.7174 50.0779C46.3493 51.0222 46.2658 52.5179 46.53 53.4366C46.9038 54.7371 47.6722 55.638 48.8807 56.193C49.3608 56.4134 49.6448 56.451 50.8376 56.4522C52.0195 56.4533 52.3152 56.4155 52.7704 56.205C53.7908 55.7333 54.6451 54.7217 54.893 53.6919L54.97 53.3721L53.834 53.3746L52.6981 53.3771L52.5237 53.7455C52.1816 54.4678 51.3154 54.8178 50.3523 54.6229C49.0998 54.3694 48.3811 52.6215 48.8567 50.9856C49.2947 49.4788 50.6482 48.8781 51.8935 49.6378C52.0904 49.7579 52.3415 50.0456 52.4512 50.277L52.6509 50.6977H53.763H54.8752L54.7958 50.2616C54.6752 49.5993 54.1262 48.7063 53.5825 48.288C52.6589 47.5777 51.0644 47.2851 49.6426 47.5653ZM20.7795 48.4958V49.4186H22.8144C23.9336 49.4186 24.8493 49.4553 24.8493 49.5002C24.8493 49.5452 24.6976 49.7414 24.5122 49.9363C24.3268 50.1313 23.3588 51.3098 22.361 52.5553L20.5469 54.8199V55.6077V56.3953H24.2097H27.8725V55.4651V54.5349H25.6623H23.4521L24.1797 53.6471C24.58 53.1588 25.5483 51.97 26.3318 51.0053L27.7562 49.2515L27.7555 48.4338L27.755 47.6163L24.2672 47.5946L20.7795 47.5731V48.4958ZM40.3939 49.3545C40.1498 49.4415 39.8417 49.6093 39.7093 49.7273C39.4335 49.9729 39.1516 50.579 39.1516 50.9265C39.1516 51.1544 39.219 51.1628 41.058 51.1628H42.9643L42.868 50.7357C42.7333 50.1387 42.4202 49.7526 41.8237 49.4477C41.2374 49.1481 41.0135 49.1336 40.3939 49.3545ZM5.13997 49.426C4.66787 49.565 4.17043 50.0503 3.90822 50.6276C3.66206 51.1696 3.61206 52.4601 3.80973 53.1717C4.08915 54.1777 5.06985 54.7665 6.18694 54.5991C6.83124 54.5024 7.46613 53.988 7.77194 53.315C8.06171 52.677 8.0609 51.2745 7.7702 50.6348C7.30892 49.6191 6.20578 49.1122 5.13997 49.426ZM15.2224 52.558C14.3549 52.688 13.9344 52.8888 13.7392 53.2664C13.4739 53.7793 13.5292 54.1309 13.928 54.4664C14.2144 54.7074 14.4086 54.7674 14.9022 54.7674C16.0003 54.7674 16.8442 54.1879 17.0066 53.3221C17.14 52.611 17.0635 52.502 16.418 52.4829C16.0988 52.4735 15.5608 52.5073 15.2224 52.558Z" fill="white"/>
</g>
<defs>
<clipPath id="clip0_6_234">
<rect width="47.907" height="40" fill="white" transform="translate(0.546387)"/>
</clipPath>
</defs>
</svg>
